# xmcd
#
# Track frame offsets: 
#        150
#        15102
#        31682
#        45630
#        62400
#        77125
#        93520
#        111545
#        127887
#        143880
#        162025
#        177385
#        191112
#        204915
#
# Disc length: 2958 seconds
#
# Revision: 0
# Processed by: cddbd v1.5.1PL2 Copyright (c) Steve Scherf et al.
# Submitted via: ExactAudioCopy v0.95b4
#
DISCID=ae0b8c0e
DTITLE=จดหมายรักจากชัวร์ - จดหมายรักจากชัวร์
DYEAR=2003
DGENRE=Country
TTITLE0=จดหมายใส่น้ำหอม
TTITLE1=จดหมายตีกลับ
TTITLE2=จดหมายถามที่อยู่
TTITLE3=จดหมายบ้านนอก
TTITLE4=จดหมายพ่ายรัก
TTITLE5=จดหมายเป็นหมัน
TTITLE6=จดหมายจากแนวหน้า
TTITLE7=จดหมายเปื้อนฝุ่น
TTITLE8=จดหมายคนอกหัก
TTITLE9=จดหมายฉบับสุดท้าย
TTITLE10=จดหมายตอบฉบับสุดท้าย
TTITLE11=จดหมายผิดซอง
TTITLE12=จดหมายผิดซอง เพราะลองใจ
TTITLE13=จดหมายจากบ้านนอก
EXTD=
EXTT0=
EXTT1=
EXTT2=
EXTT3=
EXTT4=
EXTT5=
EXTT6=
EXTT7=
EXTT8=
EXTT9=
EXTT10=
EXTT11=
EXTT12=
EXTT13=
PLAYORDER=
